<svg width="64" height="54" viewBox="0 0 64 54" fill="none" xmlns="http://www.w3.org/2000/svg">
<path fill-rule="evenodd" clip-rule="evenodd" d="M18.8495 42.9553C18.8495 44.3206 19.1043 45.0005 19.6139 45.0005L24.2739 45.0061C24.8005 45.0061 25.0666 44.3263 25.0666 42.9609V2.62309C25.0666 1.66563 24.8458 1.18974 24.3985 1.18974C24.2796 1.18974 24.189 1.20107 24.1267 1.21807L16.075 3.29161C15.5881 3.39359 15.3446 3.85249 15.3446 4.66264V7.59167C15.3446 8.52646 15.5654 8.97403 16.0127 8.93438C16.0354 8.93438 16.8451 8.73042 18.4532 8.32251C18.7193 8.28285 18.8495 8.58879 18.8495 9.24031V42.9553ZM38.3502 44.8928C38.9504 45.0061 39.6525 45.0628 40.4678 45.0628L43.5707 45.0571C44.1596 45.0571 44.454 44.6379 44.454 43.8051V41.9751C44.454 41.2273 44.1823 40.8477 43.633 40.8477H41.4701C41.0454 40.8477 40.683 40.7911 40.3886 40.6664C40.0941 40.5474 39.7997 40.2982 39.5053 39.9356C39.2108 39.573 38.99 38.9951 38.8371 38.2133C38.6842 37.4315 38.6106 36.4457 38.6106 35.2673V19.5231C38.6106 19.2568 38.6333 19.0868 38.6842 19.0188C38.7352 18.9452 38.8315 18.9112 38.973 18.9112H42.8743C43.3839 18.9112 43.6387 18.424 43.6387 17.4495V15.8009C43.6387 14.8038 43.3839 14.3052 42.8743 14.3052H38.9843C38.7352 14.3052 38.6163 14.0333 38.6163 13.4837V1.61465C38.6163 0.538215 38.3615 0 37.8519 0H34.8C34.33 0 34.0695 0.538215 34.0073 1.61465L33.458 13.4837C33.458 14.0333 33.3448 14.3052 33.1239 14.3052H31.2328C30.7232 14.3052 30.4684 14.8038 30.4684 15.8009V17.4495C30.4684 18.424 30.7232 18.9112 31.2328 18.9112H33.1239C33.3448 18.9112 33.458 19.1151 33.458 19.5231V35.171C33.458 36.8819 33.5939 38.3549 33.8544 39.5957C34.1148 40.8364 34.4546 41.8052 34.8736 42.4964C35.2926 43.1875 35.8248 43.7314 36.476 44.128C37.1271 44.5246 37.75 44.7795 38.3502 44.8928ZM53.389 47.5782C53.0436 48.3431 52.6359 48.7227 52.1716 48.7227C51.9678 48.7227 51.5205 48.6207 50.8184 48.4054C50.1276 48.2014 49.7595 48.0995 49.7199 48.0995C49.2329 48.0995 48.9895 48.853 48.9895 50.36C48.9895 51.1135 49.0687 51.5837 49.2329 51.765C49.8218 52.6431 50.9373 53.0794 52.585 53.0794H52.8907C53.9326 53.0567 54.7649 52.8244 55.3934 52.3769C56.0276 51.9293 56.5938 51.0851 57.1034 49.8444C57.613 48.6037 58.083 46.8134 58.5077 44.4736L63.9377 16.1861C63.9773 15.9028 64 15.6649 64 15.4836C64 14.6904 63.8245 14.2939 63.4791 14.2939H60.9197C60.6536 14.2939 60.4328 14.4015 60.2629 14.6168C60.0931 14.8321 59.9628 15.24 59.8836 15.8519L56.775 36.7856C56.775 37.0066 56.7297 37.1199 56.6504 37.1199C56.6278 37.1199 56.5768 36.9952 56.4976 36.7516L52.534 15.7612C52.4378 15.172 52.2962 14.7811 52.1093 14.5885C51.9225 14.3958 51.6903 14.2995 51.4072 14.2995H47.7155C47.4097 14.2995 47.2568 14.6678 47.2568 15.3986C47.2568 15.5629 47.2795 15.7895 47.3191 16.0728L53.2984 40.9384C53.7061 42.8703 53.9099 43.9977 53.9099 44.3263C53.9099 45.7313 53.7344 46.8134 53.389 47.5782ZM3.50491 43.0119C3.50491 44.3773 3.75971 45.0571 4.26931 45.0571H8.93497C9.46156 45.0571 9.72768 44.3773 9.72768 43.0119V2.67407C9.72768 1.71662 9.50686 1.24072 9.05954 1.24072C8.94063 1.24072 8.85004 1.25205 8.78776 1.26905L0.730425 3.34826C0.243475 3.45024 0 3.90914 0 4.71929V7.64832C0 8.58311 0.220826 9.03068 0.668141 8.99102C0.69079 8.99102 1.50049 8.78707 3.10856 8.37916C3.37468 8.3395 3.50491 8.64543 3.50491 9.29696V43.0119Z" fill="white"/>
</svg>
