<svg width="200" height="53" viewBox="0 0 200 53" fill="none" xmlns="http://www.w3.org/2000/svg">
<g clip-path="url(#clip0)">
<path d="M118.651 22.6075H123.925V41.4458H118.651V38.9968C116.767 41.8226 114.318 42.011 112.811 42.011C106.971 42.011 103.203 37.4898 103.203 32.0267C103.203 26.3752 106.971 22.0424 112.434 22.0424C113.941 22.0424 116.767 22.2307 118.462 25.0565V22.6075H118.651ZM108.855 32.0267C108.855 35.0408 110.927 37.3014 114.13 37.3014C117.144 37.3014 119.404 35.0408 119.404 32.0267C119.404 29.0125 117.332 26.7519 114.13 26.7519C111.115 26.7519 108.855 29.0125 108.855 32.0267Z" fill="black"/>
<path d="M134.286 27.1264V41.4435H129.011V27.1264H126.939V22.6052H129.011V16.2002H134.286V22.6052H137.865V27.1264H134.286Z" fill="black"/>
<path d="M150.298 27.1287C148.98 25.9984 147.85 25.81 147.284 25.81C145.966 25.81 145.212 26.3752 145.212 27.3171C145.212 27.8822 145.401 28.4474 146.908 29.0125L148.226 29.3893C149.733 29.9544 151.994 30.5196 152.936 32.0267C153.501 32.7802 153.878 33.9105 153.878 35.2292C153.878 36.9246 153.313 38.6201 151.806 39.9388C150.298 41.2574 148.415 42.011 146.154 42.011C142.198 42.011 140.126 40.1271 138.807 38.8085L141.633 35.6059C142.763 36.7362 144.27 37.8665 145.777 37.8665C147.284 37.8665 148.415 37.113 148.415 35.7943C148.415 34.664 147.473 34.0989 146.719 33.9105L145.589 33.5337C144.27 32.9686 142.763 32.4034 141.633 31.2731C140.691 30.3312 140.126 29.2009 140.126 27.6939C140.126 25.81 141.068 24.303 142.01 23.361C143.517 22.2307 145.401 22.0424 146.908 22.0424C148.226 22.0424 150.487 22.2307 152.936 24.1146L150.298 27.1287Z" fill="black"/>
<path d="M161.79 25.0547C163.674 22.4173 166.312 22.0406 167.819 22.0406C173.282 22.0406 177.049 26.3734 177.049 32.0249C177.049 37.6763 173.282 42.0092 167.63 42.0092C166.5 42.0092 163.674 41.8208 161.602 38.995V41.444H156.516V9.79565H161.79V25.0547ZM161.225 32.0249C161.225 35.039 163.297 37.2996 166.5 37.2996C169.514 37.2996 171.775 35.039 171.775 32.0249C171.775 29.0107 169.702 26.7501 166.5 26.7501C163.297 26.7501 161.225 29.0107 161.225 32.0249Z" fill="black"/>
<path d="M185.715 38.6173L176.672 22.6047H182.889L188.729 33.3426L194.004 22.6047H200.032L184.961 51.4273H178.933L185.715 38.6173Z" fill="black"/>
<path d="M101.884 25.8093H96.6096H88.6975V31.084H95.6677C94.5374 34.6633 91.9 37.1123 87.0021 37.1123C81.539 37.1123 77.5829 32.5911 77.5829 27.128C77.5829 21.6649 81.3506 16.9553 86.8137 16.9553C89.8278 16.9553 92.8419 18.4624 94.7258 20.9113L99.0586 18.0856C96.2328 14.1296 91.7116 11.869 86.8137 11.869C78.5248 11.869 71.743 18.6507 71.743 27.128C71.743 35.6052 78.1481 42.387 86.8137 42.387C95.4793 42.387 101.884 35.6052 101.884 27.128C102.073 26.5628 101.884 26.1861 101.884 25.8093Z" fill="black"/>
<path d="M47.2527 26.3754H34.0658V30.1431H43.1082C41.7896 35.7945 37.6451 40.5041 32.182 42.388L10.518 20.7239C12.7786 14.1305 19.1836 9.42092 26.5305 9.42092C32.182 9.42092 37.2684 12.2467 40.4709 16.5795L43.2966 14.1305C39.529 9.04415 33.5007 5.65326 26.5305 5.65326C16.7346 5.65326 8.44575 12.6234 6.37354 21.8542L31.2401 46.7208C40.2825 44.4602 47.2527 36.1713 47.2527 26.3754Z" fill="white"/>
<path d="M5.80798 26.5625C5.80798 31.8372 7.8802 36.9236 11.8362 40.8796C15.7923 44.8357 21.067 46.9079 26.1534 46.9079L5.80798 26.5625Z" fill="white"/>
<path d="M26.5304 0C12.0249 0 0.156738 11.8681 0.156738 26.3736C0.156738 40.8791 12.0249 52.7473 26.5304 52.7473C41.0359 52.7473 52.904 40.8791 52.904 26.3736C52.904 11.8681 41.0359 0 26.5304 0ZM11.8365 41.0675C7.88044 37.1115 5.80823 31.8367 5.80823 26.7504L26.342 47.0958C21.0673 46.9074 15.7925 45.0235 11.8365 41.0675ZM31.0516 46.5306L6.37338 21.8524C8.44559 12.6217 16.7344 5.65149 26.5304 5.65149C33.5005 5.65149 39.5288 9.04239 43.2965 14.1287L40.4707 16.5777C37.2682 12.2449 32.1819 9.41915 26.5304 9.41915C19.1834 9.41915 12.9668 14.1287 10.5178 20.7221L32.1819 42.3862C37.645 40.5024 41.7894 35.7928 43.1081 30.1413H34.0657V26.3736H47.2525C47.2525 36.1695 40.2823 44.4584 31.0516 46.5306Z" fill="#663399"/>
</g>
<defs>
<clipPath id="clip0">
<rect width="200" height="52.7473" fill="white"/>
</clipPath>
</defs>
</svg>
