<svg width="200" height="82" viewBox="0 0 200 82" fill="none" xmlns="http://www.w3.org/2000/svg">
<path opacity="0.3" d="M179.765 1.62216C179.729 1.7688 179.728 1.92631 179.758 2.09276C179.758 2.09276 180.257 5.40436 179.691 6.87825L155.611 69.4892L155.613 69.49C153.895 74.0887 156.198 79.2231 160.79 80.9895C165.382 82.7557 170.532 80.4873 172.338 75.9221L172.34 75.923L196.42 13.3118C196.891 12.087 199.576 9.71418 199.576 9.71418C199.711 9.61151 199.815 9.49362 199.886 9.3605L199.898 9.3361C199.911 9.31001 199.926 9.28489 199.937 9.25759C200.557 7.6431 196.553 4.60014 190.991 2.46141C185.43 0.322447 180.418 -0.102495 179.797 1.512C179.787 1.53929 179.781 1.5678 179.773 1.59607L179.765 1.62216Z" fill="black"/>
<path d="M179.069 1.08993C179.032 1.23657 179.031 1.39408 179.062 1.56053C179.062 1.56053 179.561 4.87213 178.995 6.34602L154.915 68.957L154.917 68.9577C153.199 73.5565 155.502 78.6908 160.094 80.4573C164.686 82.2235 169.836 79.955 171.642 75.3899L171.644 75.3908L195.724 12.7796C196.194 11.5548 198.88 9.18195 198.88 9.18195C199.015 9.07928 199.119 8.96163 199.19 8.82828L199.202 8.80388C199.215 8.77779 199.23 8.75266 199.24 8.72536C199.861 7.11087 195.856 4.06791 190.295 1.92919C184.734 -0.209779 179.722 -0.634722 179.101 0.979769C179.09 1.00707 179.085 1.03557 179.077 1.06384L179.069 1.08993Z" fill="url(#paint0_linear)"/>
<path d="M186.622 29.4147L169.258 74.5663L169.269 74.5707C167.988 77.8069 164.261 79.4905 160.955 78.219C157.648 76.9476 155.859 73.1422 157.077 69.8816L168.172 41.0304C168.172 41.0304 169.558 38.7951 172.279 37.2047C175 35.6144 177.244 35.9502 180.265 34.6072C183.286 33.264 186.622 29.4147 186.622 29.4147Z" fill="url(#paint1_linear)"/>
<path d="M188.485 6.66662C191.937 7.99422 195.018 8.33448 195.367 7.42661C195.716 6.51874 193.201 4.70654 189.749 3.37894C186.298 2.05134 183.216 1.71107 182.867 2.61894C182.518 3.52681 185.033 5.33901 188.485 6.66662Z" fill="#333333"/>
<path opacity="0.3" d="M179.062 1.5603C179.062 1.5603 179.554 4.89099 178.995 6.3458L154.915 68.9568L154.917 68.9575C153.199 73.5563 155.502 78.6906 160.094 80.457C160.891 80.7636 161.705 80.9455 162.515 81.0185C159.419 78.6896 158.091 74.5248 159.511 70.7244L159.509 70.7237L183.111 9.35445C183.111 9.3547 179.898 6.33807 179.062 1.5603Z" fill="white"/>
<path opacity="0.5" d="M171.31 42.6473C171.695 42.6473 172.008 42.335 172.008 41.9496C172.008 41.5643 171.695 41.252 171.31 41.252C170.925 41.252 170.612 41.5643 170.612 41.9496C170.612 42.335 170.925 42.6473 171.31 42.6473Z" fill="white"/>
<path opacity="0.5" d="M175.884 48.0604C176.464 48.0604 176.935 47.5895 176.935 47.0086C176.935 46.4276 176.464 45.9567 175.884 45.9567C175.303 45.9567 174.832 46.4276 174.832 47.0086C174.832 47.5895 175.303 48.0604 175.884 48.0604Z" fill="white"/>
<path opacity="0.5" d="M168.902 54.9977C169.991 54.9977 170.875 54.1144 170.875 53.0247C170.875 51.935 169.991 51.0517 168.902 51.0517C167.812 51.0517 166.929 51.935 166.929 53.0247C166.929 54.1144 167.812 54.9977 168.902 54.9977Z" fill="white"/>
<path opacity="0.5" d="M165.707 57.7252C166.288 57.7252 166.759 57.2542 166.759 56.6733C166.759 56.0924 166.288 55.6215 165.707 55.6215C165.126 55.6215 164.655 56.0924 164.655 56.6733C164.655 57.2542 165.126 57.7252 165.707 57.7252Z" fill="white"/>
<path opacity="0.5" d="M169.897 65.1743C170.282 65.1743 170.595 64.8619 170.595 64.4766C170.595 64.0913 170.282 63.7789 169.897 63.7789C169.512 63.7789 169.199 64.0913 169.199 64.4766C169.199 64.8619 169.512 65.1743 169.897 65.1743Z" fill="white"/>
<g opacity="0.3">
<g opacity="0.3">
<path opacity="0.3" d="M47.1301 38.1017C48.1967 38.954 50.1163 38.4568 51.3962 37.036C52.7471 35.5443 52.9604 33.6261 51.8941 32.7736C50.8273 31.921 48.9076 32.4185 47.6277 33.9102C46.2768 35.402 46.0635 37.2491 47.1301 38.1017ZM44.0016 40.8724C43.7173 40.8724 43.2196 41.3695 43.646 41.5826C44.2147 41.7957 44.4993 42.2926 44.4993 43.0034C44.0016 45.9161 40.3755 49.2548 38.9533 50.3914C38.5977 50.7468 39.0956 51.5281 39.4509 51.244C40.2332 50.6047 41.8684 49.3258 43.2196 47.6207C41.0154 52.5227 36.7491 58.8451 35.1138 61.0473C28.7148 69.9272 18.9735 78.0967 12.2899 78.0967C6.95721 78.0967 2.40653 74.4737 1.41122 69.1456C1.34019 68.5772 0.55795 68.4354 0.700242 69.2167C1.90888 76.5339 7.52614 79.3754 14.352 79.3754C21.8179 79.3754 30.581 73.9659 35.4001 68.4303C43.1981 59.473 48.2679 49.1835 46.917 43.3585C46.3481 41.1565 44.8549 40.8011 44.0016 40.8724ZM91.9747 60.3511C94.0366 59.8537 95.7431 58.6999 95.7431 56.9153C95.7431 56.737 95.3875 56.737 95.3875 56.9153C95.3875 57.9863 94.1789 58.8593 92.8279 59.0724C89.6282 59.5698 83.3002 55.8173 80.3138 51.981C83.5135 53.1889 90.0548 51.4193 93.1123 49.2171C95.9564 47.1571 97.094 44.887 97.3073 43.0401C97.6627 39.985 94.3209 38.2111 89.6992 39.987C86.713 41.1946 83.1579 43.8238 79.4605 48.7255C83.3712 42.261 91.0501 31.7473 98.587 24.9988C107.759 16.8292 113.092 18.3922 104.844 27.0592C101.431 30.6112 95.0319 35.2288 90.6235 37.218C89.2726 37.7864 89.9125 38.5677 90.9078 38.1415C95.6006 36.0813 101.858 31.8191 105.626 28.2669C116.789 17.5399 107.475 9.44137 95.1029 20.8078C86.7128 28.5512 81.2378 36.6495 76.4741 47.1634C74.8385 49.1523 73.6299 50.7864 72.1367 52.0651C71.9606 52.2207 71.8195 52.3721 71.7033 52.5169C67.5971 56.0355 61.1515 60.7857 57.1461 60.8427C54.3019 60.9137 53.0933 58.7828 53.5909 56.0121C54.3729 51.6786 58.8526 46.5638 62.6921 44.7879C67.6694 42.5146 70.5843 46.9189 64.043 50.4709C61.5542 51.7496 58.568 52.4598 57.3591 52.4598C55.9369 52.4598 56.0792 53.0283 57.2881 53.0991C59.279 53.1701 62.4787 52.3178 64.6117 51.323C71.2953 48.1263 71.7219 42.1588 64.4694 41.946C56.5771 41.6616 47.1204 48.4104 47.1914 56.8641C47.2625 60.7004 50.3199 62.7604 54.515 62.7604C61.4914 62.6971 67.7315 57.378 72.8334 52.7C73.5659 52.0909 74.2735 51.4213 74.9806 50.7149C73.203 55.2612 72.2787 59.4527 72.7054 62.5785C72.99 64.8518 74.2699 65.9171 75.2652 66.7699C75.4785 66.912 75.9051 66.7699 75.6205 66.3435C74.1273 64.5674 74.554 59.2976 76.6161 54.1828C78.3229 57.5934 85.0065 61.9141 91.9747 60.3511ZM83.5845 45.5293C91.7613 38.2123 94.9609 44.7481 89.7705 48.7259C87.0684 50.7862 81.7357 52.3492 80.0294 51.3546L79.6738 51.1415C79.4605 50.7862 79.2472 50.431 79.1051 50.0759C80.456 48.4421 82.0203 46.9503 83.5845 45.5293ZM128.967 37.238C132.237 37.5934 130.886 33.615 127.545 34.6096C126.051 35.0357 124.63 37.8772 123.563 40.3638C120.292 45.2655 114.817 51.9433 110.978 55.4243C107.565 58.3368 104.436 59.1183 108.276 53.6479C109.84 51.4459 111.831 49.1016 112.969 46.7573C115.67 40.861 109.911 38.2326 105.289 41.7846C102.588 43.8445 98.9615 48.107 96.1173 50.4513C95.3351 51.0905 95.5484 52.0144 96.3306 51.3749C98.6056 49.5278 102.588 45.3366 106 42.8502C108.844 40.6479 109.982 42.0687 108.347 43.9156C106.071 46.5442 102.09 51.0905 101.094 54.0033C99.6722 58.3368 101.379 60.2547 104.223 60.2547C108.134 60.2547 113.964 54.1454 117.875 49.3147C119.155 47.6809 120.577 45.7627 121.785 43.9156C118.373 50.5224 114.817 57.1999 110.409 63.2382C104.152 71.7632 96.3309 78.1566 88.9361 78.1566C83.6034 78.1566 78.9817 74.5336 77.9861 69.2058C77.9151 68.6371 77.2041 68.4953 77.2751 69.2766C78.4838 76.5939 84.101 79.4353 90.9269 79.4353C98.3928 79.4353 105.574 75.1018 110.622 69.774C120.79 59.047 121.999 46.9704 125.127 40.2215C126.549 37.238 127.9 37.096 128.967 37.238ZM170.299 26.8947C171.792 24.3373 171.721 22.3481 168.237 22.3481C165.606 22.4191 160.842 24.266 158.638 25.9711C158.14 26.4685 158.354 26.7526 158.994 26.4685C159.42 26.3265 159.918 26.0421 160.416 25.8293C162.905 24.4796 161.909 27.3211 161.34 28.3867C158.354 33.5725 153.092 40.8895 150.319 44.5125C148.991 46.2964 147.493 48.078 146.051 49.5927C143.381 52.1257 138.107 56.6136 134.117 58.1237C121.177 62.9544 137.672 40.9323 139.023 39.1562C142.081 35.3199 148.907 28.6423 150.968 25.3034C152.462 22.746 152.391 20.7568 148.907 20.7568C146.276 20.8278 141.512 22.6747 139.308 24.3798C138.81 24.8772 139.023 25.1611 139.663 24.8772C140.09 24.7352 140.588 24.4508 141.086 24.238C143.574 22.8883 142.579 25.7298 142.01 26.7954C139.024 31.9812 133.762 39.2985 130.989 42.9215C128.714 45.9763 125.941 49.0308 123.807 50.7359C122.954 51.4462 123.452 52.0856 124.305 51.5172C125.087 51.0198 126.225 49.8831 127.505 48.5334C125.159 53.222 123.239 59.8288 129.425 60.6101C134.696 61.3307 140.964 55.9512 145.016 51.9668C145.463 51.544 145.953 51.0473 146.471 50.5071C146.592 50.3827 146.712 50.261 146.827 50.1431C144.484 54.8305 142.578 61.4211 148.755 62.2014C155.51 63.1247 163.9 54.0318 167.171 50.6927C167.811 50.0534 167.597 48.9878 166.531 50.0534C164.611 52.0426 158.141 57.9389 153.448 59.715C140.508 64.5454 157.003 42.5233 158.354 40.7472C161.411 36.9111 168.237 30.2333 170.299 26.8947Z" fill="black"/>
</g>
</g>
<path d="M46.4473 37.4187C47.5139 38.2713 49.4335 37.7741 50.7134 36.3531C52.0644 34.8614 52.2777 32.9432 51.2113 32.0907C50.1448 31.2381 48.2249 31.7355 46.945 33.2273C45.5938 34.7193 45.3808 36.5664 46.4473 37.4187ZM43.3186 40.1894C43.0343 40.1894 42.5366 40.6869 42.963 40.8997C43.5317 41.1128 43.8163 41.6099 43.8163 42.3207C43.3186 45.2332 39.6925 48.5721 38.2703 49.7087C37.9147 50.0639 38.4126 50.8454 38.7679 50.561C39.5502 49.9218 41.1854 48.6431 42.5366 46.938C40.3324 51.8397 36.0661 58.1624 34.4308 60.3644C28.0318 69.2445 18.2905 77.4138 11.6069 77.4138C6.27423 77.4138 1.72355 73.791 0.728233 68.463C0.657208 67.8943 -0.125033 67.7527 0.0172586 68.534C1.22589 75.851 6.84315 78.6925 13.669 78.6925C21.1349 78.6925 29.898 73.283 34.7171 67.7474C42.5151 58.79 47.585 48.5008 46.234 42.6756C45.6651 40.4735 44.1721 40.1184 43.3186 40.1894ZM91.2917 59.6684C93.3536 59.171 95.0601 58.0172 95.0601 56.2326C95.0601 56.0541 94.7045 56.0541 94.7045 56.2326C94.7045 57.3033 93.4959 58.1764 92.1449 58.3895C88.9452 58.8869 82.6172 55.1347 79.6308 51.2983C82.8305 52.506 89.3718 50.7364 92.4293 48.5344C95.2734 46.4742 96.411 44.2041 96.6244 42.3572C96.9797 39.3024 93.6379 37.5282 89.0162 39.304C86.03 40.5117 82.4749 43.1411 78.7775 48.0428C82.6882 41.5781 90.3671 31.0647 97.904 24.3158C107.076 16.1463 112.409 17.7093 104.161 26.3763C100.748 29.9283 94.3489 34.5459 89.9405 36.535C88.5896 37.1035 89.2295 37.8848 90.2249 37.4584C94.9178 35.3984 101.175 31.1359 104.943 27.5839C116.106 16.857 106.792 8.75845 94.4199 20.1249C86.0298 27.8683 80.5548 35.9666 75.7911 46.4807C74.1556 48.4697 72.9469 50.1037 71.4537 51.3824C71.2776 51.5377 71.1365 51.6892 71.0203 51.8339C66.9141 55.3528 60.4687 60.1028 56.4631 60.16C53.6189 60.2311 52.4103 58.0998 52.908 55.3294C53.69 50.9959 58.1696 45.8811 62.0091 44.105C66.9864 41.8317 69.9013 46.236 63.36 49.788C60.8715 51.0669 57.885 51.7772 56.6764 51.7772C55.2544 51.7772 55.3965 52.3456 56.6054 52.4164C58.5962 52.4874 61.796 51.6349 63.9289 50.64C70.6125 47.4434 71.0392 41.4759 63.7866 41.263C55.8942 40.9789 46.4377 47.7278 46.5087 56.1814C46.5797 60.0175 49.6372 62.0777 53.8323 62.0777C60.8087 62.0142 67.0487 56.695 72.1504 52.0173C72.8829 51.408 73.5905 50.7386 74.2976 50.032C72.5201 54.5785 71.5958 58.77 72.0224 61.8956C72.307 64.1688 73.5869 65.2345 74.5822 66.087C74.7955 66.2291 75.2221 66.087 74.9376 65.6609C73.4443 63.8848 73.871 58.6149 75.9331 53.5001C77.6399 56.9105 84.3237 61.231 91.2917 59.6684ZM82.9018 44.8467C91.0786 37.5296 94.2781 44.0654 89.0877 48.0433C86.3859 50.1035 81.0532 51.6663 79.3467 50.6717L78.9911 50.4586C78.7777 50.1035 78.5644 49.7483 78.4224 49.3932C79.7731 47.7594 81.3373 46.2674 82.9018 44.8467ZM128.284 36.5553C131.554 36.9105 130.204 32.9321 126.862 33.9269C125.368 34.3531 123.947 37.1948 122.88 39.6812C119.609 44.5829 114.134 51.2607 110.295 54.7416C106.882 57.6544 103.753 58.4356 107.593 52.9655C109.157 50.7632 111.148 48.4189 112.286 46.0749C114.987 40.1786 109.228 37.5502 104.606 41.1021C101.905 43.1621 98.2785 47.4246 95.4343 49.7689C94.6521 50.4081 94.8654 51.3317 95.6476 50.6922C97.9229 48.8451 101.905 44.6539 105.317 42.1675C108.162 39.9653 109.299 41.3862 107.664 43.2331C105.389 45.8615 101.407 50.4081 100.411 53.3209C98.9892 57.6544 100.696 59.5723 103.54 59.5723C107.45 59.5723 113.281 53.4629 117.191 48.6322C118.471 46.9982 119.894 45.0803 121.102 43.2331C117.689 49.8399 114.134 56.5175 109.726 62.5558C103.469 71.0805 95.6474 77.474 88.2526 77.474C82.9199 77.474 78.2982 73.8512 77.3029 68.5231C77.2316 67.9547 76.5207 67.8129 76.5917 68.5941C77.8003 75.9112 83.4176 78.7527 90.2435 78.7527C97.7093 78.7527 104.891 74.4192 109.939 69.0916C120.107 58.3646 121.315 46.2877 124.444 39.5391C125.866 36.5553 127.217 36.413 128.284 36.5553ZM169.616 26.2118C171.109 23.6544 171.038 21.6652 167.554 21.6652C164.923 21.7362 160.159 23.5831 157.955 25.2882C157.457 25.7856 157.671 26.0697 158.311 25.7856C158.737 25.6436 159.235 25.3595 159.733 25.1464C162.222 23.7967 161.226 26.6382 160.657 27.7038C157.671 32.8896 152.409 40.2068 149.636 43.8298C148.308 45.6134 146.81 47.3951 145.368 48.9101C142.698 51.443 137.424 55.9309 133.434 57.441C120.493 62.2717 136.989 40.2494 138.34 38.4732C141.398 34.6372 148.224 27.9594 150.285 24.6205C151.779 22.0631 151.707 20.0739 148.224 20.0739C145.593 20.1449 140.829 21.9918 138.625 23.6969C138.127 24.1943 138.34 24.4782 138.98 24.1943C139.407 24.0523 139.905 23.7679 140.403 23.5551C142.891 22.2054 141.896 25.0469 141.327 26.1125C138.34 31.2983 133.079 38.6153 130.306 42.2383C128.031 45.2931 125.258 48.3477 123.124 50.0527C122.271 50.763 122.769 51.4027 123.622 50.8343C124.404 50.3366 125.542 49.2002 126.822 47.8502C124.475 52.5389 122.556 59.1456 128.741 59.9272C134.013 60.6476 140.28 55.268 144.333 51.2838C144.78 50.8608 145.27 50.3644 145.788 49.8242C145.909 49.6996 146.028 49.578 146.143 49.4599C143.801 54.1476 141.895 60.7379 148.072 61.5182C154.827 62.4415 163.217 53.3486 166.488 50.0097C167.128 49.3705 166.915 48.3047 165.848 49.3705C163.928 51.3595 157.458 57.256 152.765 59.0319C139.824 63.8623 156.32 41.8402 157.671 40.0641C160.728 36.2282 167.554 29.5507 169.616 26.2118Z" fill="url(#paint2_linear)"/>
<g opacity="0.75">
<g opacity="0.75">
<path opacity="0.75" d="M46.4473 37.4187C47.5139 38.2713 49.4335 37.7741 50.7134 36.3531C52.0644 34.8614 52.2777 32.9432 51.2113 32.0907C50.1448 31.2381 48.2249 31.7355 46.945 33.2273C45.5938 34.7193 45.3808 36.5664 46.4473 37.4187ZM43.3186 40.1894C43.0343 40.1894 42.5366 40.6869 42.963 40.8997C43.5317 41.1128 43.8163 41.6099 43.8163 42.3207C43.3186 45.2332 39.6925 48.5721 38.2703 49.7087C37.9147 50.0639 38.4126 50.8454 38.7679 50.561C39.5502 49.9218 41.1854 48.6431 42.5366 46.938C40.3324 51.8397 36.0661 58.1624 34.4308 60.3644C28.0318 69.2445 18.2905 77.4138 11.6069 77.4138C6.27423 77.4138 1.72355 73.791 0.728233 68.463C0.657208 67.8943 -0.125033 67.7527 0.0172586 68.534C1.22589 75.851 6.84315 78.6925 13.669 78.6925C21.1349 78.6925 29.898 73.283 34.7171 67.7474C42.5151 58.79 47.585 48.5008 46.234 42.6756C45.6651 40.4735 44.1721 40.1184 43.3186 40.1894ZM91.2917 59.6684C93.3536 59.171 95.0601 58.0172 95.0601 56.2326C95.0601 56.0541 94.7045 56.0541 94.7045 56.2326C94.7045 57.3033 93.4959 58.1764 92.1449 58.3895C88.9452 58.8869 82.6172 55.1347 79.6308 51.2983C82.8305 52.506 89.3718 50.7364 92.4293 48.5344C95.2734 46.4742 96.411 44.2041 96.6244 42.3572C96.9797 39.3024 93.6379 37.5282 89.0162 39.304C86.03 40.5117 82.4749 43.1411 78.7775 48.0428C82.6882 41.5781 90.3671 31.0647 97.904 24.3158C107.076 16.1463 112.409 17.7093 104.161 26.3763C100.748 29.9283 94.3489 34.5459 89.9405 36.535C88.5896 37.1035 89.2295 37.8848 90.2249 37.4584C94.9178 35.3984 101.175 31.1359 104.943 27.5839C116.106 16.857 106.792 8.75845 94.4199 20.1249C86.0298 27.8683 80.5548 35.9666 75.7911 46.4807C74.1556 48.4697 72.9469 50.1037 71.4537 51.3824C71.2776 51.5377 71.1365 51.6892 71.0203 51.8339C66.9141 55.3528 60.4687 60.1028 56.4631 60.16C53.6189 60.2311 52.4103 58.0998 52.908 55.3294C53.69 50.9959 58.1696 45.8811 62.0091 44.105C66.9864 41.8317 69.9013 46.236 63.36 49.788C60.8715 51.0669 57.885 51.7772 56.6764 51.7772C55.2544 51.7772 55.3965 52.3456 56.6054 52.4164C58.5962 52.4874 61.796 51.6349 63.9289 50.64C70.6125 47.4434 71.0392 41.4759 63.7866 41.263C55.8942 40.9789 46.4377 47.7278 46.5087 56.1814C46.5797 60.0175 49.6372 62.0777 53.8323 62.0777C60.8087 62.0142 67.0487 56.695 72.1504 52.0173C72.8829 51.408 73.5905 50.7386 74.2976 50.032C72.5201 54.5785 71.5958 58.77 72.0224 61.8956C72.307 64.1688 73.5869 65.2345 74.5822 66.087C74.7955 66.2291 75.2221 66.087 74.9376 65.6609C73.4443 63.8848 73.871 58.6149 75.9331 53.5001C77.6399 56.9105 84.3237 61.231 91.2917 59.6684ZM82.9018 44.8467C91.0786 37.5296 94.2781 44.0654 89.0877 48.0433C86.3859 50.1035 81.0532 51.6663 79.3467 50.6717L78.9911 50.4586C78.7777 50.1035 78.5644 49.7483 78.4224 49.3932C79.7731 47.7594 81.3373 46.2674 82.9018 44.8467ZM128.284 36.5553C131.554 36.9105 130.204 32.9321 126.862 33.9269C125.368 34.3531 123.947 37.1948 122.88 39.6812C119.609 44.5829 114.134 51.2607 110.295 54.7416C106.882 57.6544 103.753 58.4356 107.593 52.9655C109.157 50.7632 111.148 48.4189 112.286 46.0749C114.987 40.1786 109.228 37.5502 104.606 41.1021C101.905 43.1621 98.2785 47.4246 95.4343 49.7689C94.6521 50.4081 94.8654 51.3317 95.6476 50.6922C97.9229 48.8451 101.905 44.6539 105.317 42.1675C108.162 39.9653 109.299 41.3862 107.664 43.2331C105.389 45.8615 101.407 50.4081 100.411 53.3209C98.9892 57.6544 100.696 59.5723 103.54 59.5723C107.45 59.5723 113.281 53.4629 117.191 48.6322C118.471 46.9982 119.894 45.0803 121.102 43.2331C117.689 49.8399 114.134 56.5175 109.726 62.5558C103.469 71.0805 95.6474 77.474 88.2526 77.474C82.9199 77.474 78.2982 73.8512 77.3029 68.5231C77.2316 67.9547 76.5207 67.8129 76.5917 68.5941C77.8003 75.9112 83.4176 78.7527 90.2435 78.7527C97.7093 78.7527 104.891 74.4192 109.939 69.0916C120.107 58.3646 121.315 46.2877 124.444 39.5391C125.866 36.5553 127.217 36.413 128.284 36.5553ZM169.616 26.2118C171.109 23.6544 171.038 21.6652 167.554 21.6652C164.923 21.7362 160.159 23.5831 157.955 25.2882C157.457 25.7856 157.671 26.0697 158.311 25.7856C158.737 25.6436 159.235 25.3595 159.733 25.1464C162.222 23.7967 161.226 26.6382 160.657 27.7038C157.671 32.8896 152.409 40.2068 149.636 43.8298C148.308 45.6134 146.81 47.3951 145.368 48.9101C142.698 51.443 137.424 55.9309 133.434 57.441C120.493 62.2717 136.989 40.2494 138.34 38.4732C141.398 34.6372 148.224 27.9594 150.285 24.6205C151.779 22.0631 151.707 20.0739 148.224 20.0739C145.593 20.1449 140.829 21.9918 138.625 23.6969C138.127 24.1943 138.34 24.4782 138.98 24.1943C139.407 24.0523 139.905 23.7679 140.403 23.5551C142.891 22.2054 141.896 25.0469 141.327 26.1125C138.34 31.2983 133.079 38.6153 130.306 42.2383C128.031 45.2931 125.258 48.3477 123.124 50.0527C122.271 50.763 122.769 51.4027 123.622 50.8343C124.404 50.3366 125.542 49.2002 126.822 47.8502C124.475 52.5389 122.556 59.1456 128.741 59.9272C134.013 60.6476 140.28 55.268 144.333 51.2838C144.78 50.8608 145.27 50.3644 145.788 49.8242C145.909 49.6996 146.028 49.578 146.143 49.4599C143.801 54.1476 141.895 60.7379 148.072 61.5182C154.827 62.4415 163.217 53.3486 166.488 50.0097C167.128 49.3705 166.915 48.3047 165.848 49.3705C163.928 51.3595 157.458 57.256 152.765 59.0319C139.824 63.8623 156.32 41.8402 157.671 40.0641C160.728 36.2282 167.554 29.5507 169.616 26.2118Z" fill="white"/>
</g>
</g>
<path d="M145.787 50.3076C145.753 50.3429 145.721 50.376 145.688 50.4108C144.674 52.6195 143.854 55.1083 143.919 57.1782C143.991 54.8993 145.015 52.2014 146.143 49.9435C146.028 50.0614 145.909 50.1829 145.787 50.3076Z" fill="white"/>
<path d="M126.356 48.8206C125.343 51.0292 124.522 53.5182 124.588 55.5878C124.66 53.3027 125.69 50.5955 126.821 48.3336C126.664 48.4996 126.509 48.6622 126.356 48.8206Z" fill="white"/>
<path d="M157.843 25.8958C157.876 25.8557 157.912 25.8149 157.955 25.7711C160.159 24.0663 164.923 22.2192 167.554 22.1481C169.542 22.1481 170.418 22.7965 170.526 23.8281C170.654 22.5195 169.837 21.665 167.554 21.665C164.923 21.736 160.159 23.5829 157.955 25.288C157.614 25.6293 157.607 25.87 157.843 25.8958Z" fill="white"/>
<path d="M165.847 49.3707C163.928 51.3597 157.458 57.2562 152.765 59.0321C149.333 60.3132 147.972 59.7054 147.849 58.0882C147.737 60.0561 149.011 60.9164 152.765 59.5152C157.458 57.7391 163.928 51.8428 165.847 49.8539C166.366 49.3355 166.681 49.3234 166.797 49.5191C166.977 48.9861 166.662 48.5571 165.847 49.3707Z" fill="white"/>
<path d="M123.124 50.5359C125.257 48.8308 128.03 45.7763 130.305 42.7215C133.078 39.0985 138.34 31.7815 141.326 26.5957C141.648 25.9936 142.105 24.8251 141.993 24.1653C141.915 24.8164 141.579 25.6392 141.326 26.1125C138.34 31.2983 133.078 38.6153 130.305 42.2383C128.03 45.2931 125.257 48.3477 123.124 50.0528C122.669 50.4316 122.6 50.7884 122.763 50.9543C122.833 50.8241 122.949 50.6818 123.124 50.5359Z" fill="white"/>
<path d="M138.512 24.3047C138.545 24.2649 138.581 24.2238 138.624 24.1803C140.829 22.4752 145.592 20.6283 148.223 20.5573C150.211 20.5573 151.087 21.2057 151.196 22.2373C151.324 20.9286 150.506 20.0742 148.223 20.0742C145.592 20.1452 140.829 21.9921 138.624 23.6972C138.283 24.038 138.276 24.2786 138.512 24.3047Z" fill="white"/>
<path d="M160.657 28.1867C160.978 27.5846 161.435 26.4161 161.324 25.7566C161.246 26.4077 160.909 27.2305 160.657 27.7035C157.671 32.8893 152.409 40.2066 149.636 43.8296C148.307 45.6132 146.81 47.3948 145.368 48.9098C142.698 51.4428 137.424 55.9306 133.434 57.4408C130.002 58.7216 128.641 58.1141 128.518 56.4969C128.406 58.4648 129.68 59.3251 133.434 57.9239C137.424 56.4136 142.698 51.9259 145.368 49.393C146.81 47.878 148.307 46.0963 149.636 44.3127C152.409 40.6897 157.671 33.3727 160.657 28.1867Z" fill="white"/>
<path d="M110.295 54.7413C108.148 56.5735 106.115 57.5608 105.857 56.6808C105.545 58.3059 107.847 57.3137 110.295 55.2245C114.134 51.7436 119.609 45.0658 122.88 40.1641C123.947 37.6777 125.369 34.836 126.862 34.4098C128.703 33.8619 129.937 34.8232 130.13 35.7378C130.367 34.7379 129.037 33.2795 126.862 33.9267C125.369 34.3528 123.947 37.1945 122.88 39.6809C119.609 44.5826 114.134 51.2604 110.295 54.7413Z" fill="white"/>
<path d="M108.387 41.9781C108.308 42.3364 108.072 42.7713 107.664 43.2329C105.389 45.8613 101.407 50.4079 100.411 53.3207C100.027 54.4911 99.8732 55.4838 99.9063 56.3117C99.9382 55.5884 100.099 54.7544 100.411 53.8038C101.407 50.8911 105.389 46.3445 107.664 43.7161C108.282 43.0184 108.503 42.3818 108.387 41.9781Z" fill="white"/>
<path d="M95.4343 50.2518C98.2785 47.9075 101.905 43.645 104.606 41.5851C108.332 38.7218 112.793 39.8761 112.97 43.5184C113.18 39.4985 108.492 38.1157 104.606 41.1019C101.905 43.1619 98.2785 47.4243 95.4343 49.7686C94.9727 50.146 94.8598 50.62 95.0041 50.8157C95.0763 50.6323 95.2147 50.4311 95.4343 50.2518Z" fill="white"/>
<path d="M76.6209 68.7478C76.7535 68.3608 77.2446 68.5386 77.3031 69.0063C78.2984 74.3344 82.9201 77.9571 88.2528 77.9571C95.6474 77.9571 103.469 71.5637 109.726 63.039C114.134 57.0006 117.689 50.3228 121.102 43.7163C120.761 44.2369 120.403 44.7633 120.036 45.2876C116.943 51.2162 113.678 57.1429 109.726 62.5558C103.469 71.0805 95.6476 77.474 88.2528 77.474C82.9201 77.474 78.2984 73.8512 77.3031 68.5231C77.2318 67.9547 76.5209 67.8129 76.5919 68.5942C76.6008 68.6463 76.6117 68.6959 76.6209 68.7478Z" fill="white"/>
<path d="M63.3605 49.788C60.872 51.0669 57.8855 51.7771 56.6769 51.7771C55.5424 51.7771 55.4059 52.1383 56.0099 52.3205C56.1732 52.2837 56.3923 52.2603 56.6769 52.2603C57.8855 52.2603 60.872 51.5501 63.3605 50.2711C66.2375 48.709 67.2847 46.9822 67.1323 45.7308C66.9982 46.9223 65.8831 48.4182 63.3605 49.788Z" fill="white"/>
<path d="M74.0036 50.8058C72.6653 54.3962 71.8898 57.7331 71.9243 60.4606C71.9847 57.6266 72.8629 54.1872 74.2983 50.5156C74.2003 50.6137 74.1017 50.7094 74.0036 50.8058Z" fill="white"/>
<path d="M52.807 56.739C52.7128 59.0425 53.9463 60.706 56.4636 60.6432C60.4693 60.586 66.9147 55.8362 71.0208 52.3171C71.1368 52.1722 71.2779 52.0207 71.4542 51.8656C72.9475 50.5869 74.1561 48.9529 75.7916 46.9639C80.5556 36.45 86.0303 28.3515 94.4204 20.6081C102.753 12.9528 109.698 14.1274 109.934 18.9875C110.143 13.7302 103.022 12.2225 94.4204 20.1249C86.0303 27.8683 80.5553 35.9666 75.7916 46.4807C74.1561 48.4697 72.9475 50.1037 71.4542 51.3824C71.2781 51.5378 71.137 51.6893 71.0208 51.834C66.9147 55.3528 60.4693 60.1028 56.4636 60.1601C54.1261 60.2183 52.8957 58.7879 52.807 56.739Z" fill="white"/>
<path d="M89.9407 36.535C89.1607 36.8631 89.0464 37.2612 89.2793 37.4576C89.3945 37.3125 89.6061 37.1588 89.9407 37.0182C94.3491 35.029 100.748 30.4114 104.161 26.8595C107.217 23.6486 108.407 21.414 108.23 20.2867C108.074 21.5147 106.829 23.5735 104.161 26.3763C100.748 29.9283 94.3491 34.5459 89.9407 36.535Z" fill="white"/>
<path d="M89.0875 48.5267C90.9153 47.1255 91.7014 45.4081 91.5973 44.0895C91.5014 45.3267 90.6994 46.8083 89.0875 48.0435C86.3857 50.1037 81.053 51.6665 79.3465 50.6719L78.9909 50.4588C78.8404 50.2086 78.6913 49.958 78.5659 49.7078C78.5183 49.764 78.4693 49.8196 78.4222 49.8766C78.5645 50.2318 78.7778 50.5869 78.9909 50.942L79.3465 51.1551C81.053 52.1497 86.3857 50.5869 89.0875 48.5267Z" fill="white"/>
<path d="M94.7045 56.1319C94.7045 57.3399 93.4958 58.1262 92.1449 58.3393C89.1261 58.8084 83.324 55.52 80.1695 51.9224C79.9818 51.8748 79.8006 51.8332 79.6307 51.7692C82.6172 55.6053 88.9452 59.3641 92.1449 58.8667C93.4958 58.6533 94.7045 57.7836 94.7045 56.7127C94.7045 56.567 94.9391 56.4938 95.026 56.5861C95.0461 56.4545 95.0601 56.3738 95.0601 56.1322H94.7045V56.1319Z" fill="white"/>
<path d="M63.7871 41.7465C67.2108 41.8472 68.9212 43.2305 69.072 44.9989C69.2104 43.0053 67.5167 41.373 63.7871 41.2633C55.8946 40.9792 46.4382 47.728 46.5092 56.1817C46.5097 56.2107 46.5121 56.2385 46.5128 56.2672C46.7353 48.0008 56.0188 41.4669 63.7871 41.7465Z" fill="white"/>
<path d="M89.0164 39.3041C86.4139 40.3566 83.3789 42.4903 80.1943 46.266C79.6812 47.0601 79.2058 47.8184 78.7777 48.5257C82.4751 43.624 86.0302 40.9947 89.0164 39.787C93.2854 38.1464 96.4601 39.5362 96.64 42.1651C96.8352 39.2294 93.5401 37.5656 89.0164 39.3041Z" fill="white"/>
<path d="M74.0529 62.334C74.0251 64.013 74.3044 65.3572 74.911 66.109C75.0342 66.0479 75.0968 65.8988 74.9381 65.6614C74.372 64.9881 74.0826 63.8123 74.0529 62.334Z" fill="white"/>
<path d="M42.9309 40.8797C43.0415 40.7615 43.1988 40.6726 43.3186 40.6726C44.1719 40.6016 45.6651 40.9567 46.2338 43.159C46.3596 43.7018 46.4295 44.2835 46.4468 44.8991C46.4589 44.1036 46.392 43.3581 46.2338 42.6758C45.6651 40.4736 44.1719 40.1184 43.3186 40.1895C43.0425 40.1895 42.568 40.6574 42.9309 40.8797Z" fill="white"/>
<path d="M0.0375514 68.6422C0.176461 68.3175 0.672186 68.4985 0.728233 68.9464C1.72355 74.2745 6.27423 77.8972 11.6069 77.8972C18.2907 77.8972 28.0318 69.7279 34.4308 60.8478C36.0663 58.6458 40.3324 52.3231 42.5366 47.4214C42.367 47.6355 42.1931 47.8425 42.017 48.0426C39.7174 52.7493 35.946 58.3248 34.4308 60.3647C28.0318 69.2447 18.2905 77.4141 11.6069 77.4141C6.27423 77.4141 1.72355 73.7913 0.728233 68.4632C0.657208 67.8945 -0.125033 67.753 0.0172586 68.5342C0.0232982 68.5707 0.0310287 68.6058 0.0375514 68.6422Z" fill="white"/>
<path d="M38.2703 50.1919C39.6925 49.0553 43.3186 45.7164 43.8163 42.8038C43.8163 42.6819 43.8049 42.5685 43.788 42.4596C43.2019 45.3388 39.6698 48.59 38.2703 49.7087C38.1186 49.8604 38.1229 50.0895 38.2048 50.2806C38.2227 50.2492 38.2432 50.219 38.2703 50.1919Z" fill="white"/>
<path d="M46.945 33.7107C48.2249 32.2189 50.1448 31.7215 51.2114 32.574C51.6059 32.8895 51.8243 33.3512 51.8757 33.8827C51.9356 33.1507 51.7213 32.4984 51.2114 32.0909C50.1448 31.2383 48.2249 31.7357 46.945 33.2275C46.0927 34.1687 45.6946 35.2505 45.7835 36.1357C45.8507 35.3575 46.2423 34.4864 46.945 33.7107Z" fill="white"/>
<defs>
<linearGradient id="paint0_linear" x1="165.126" y1="37.3213" x2="185.265" y2="45.0658" gradientUnits="userSpaceOnUse">
<stop stop-color="#919191"/>
<stop offset="1" stop-color="white"/>
</linearGradient>
<linearGradient id="paint1_linear" x1="164.611" y1="50.2874" x2="176.804" y2="54.9759" gradientUnits="userSpaceOnUse">
<stop stop-color="#990000"/>
<stop offset="1" stop-color="#E80000"/>
</linearGradient>
<linearGradient id="paint2_linear" x1="85.2697" y1="78.7526" x2="85.2697" y2="14.6194" gradientUnits="userSpaceOnUse">
<stop stop-color="#919191"/>
<stop offset="1" stop-color="white"/>
</linearGradient>
</defs>
</svg>
