<svg width="107" height="64" viewBox="0 0 107 64" fill="none" xmlns="http://www.w3.org/2000/svg">
<path d="M25.3804 16.7075H45.4602V18.2855H27.2215V30.1603H44.3724V31.7383H27.2215V44.7758H45.6692V46.3538H25.3804V16.7075ZM47.2588 16.7075H49.3925L58.8467 29.7451L68.5099 16.7075L81.6535 0.147186L60.0599 31.1154L71.1872 46.3538H68.9698L58.8467 32.4857L48.6817 46.3538H46.5062L57.7171 31.1154L47.2595 16.7075H47.2588ZM71.9823 18.2855V16.7075H94.8641V18.2855H84.3229V46.3531H82.4818V18.2855H71.9831H71.9823ZM0.260376 16.7075H2.56138L34.2875 63.643L21.1763 46.3538L2.18437 18.9497L2.10075 46.3538H0.260376V16.7075ZM94.6796 44.2994C94.3025 44.2994 94.0207 44.0114 94.0207 43.6395C94.0207 43.2668 94.3025 42.9788 94.6788 42.9788C95.0594 42.9788 95.337 43.2668 95.337 43.6395C95.337 44.0114 95.0594 44.2994 94.6788 44.2994H94.6796ZM96.4875 42.5621H97.4729C97.4866 43.0898 97.8766 43.4439 98.449 43.4439C99.0891 43.4439 99.4517 43.0635 99.4517 42.3495V37.8297H100.454V42.3538C100.454 43.6395 99.7026 44.3797 98.4576 44.3797C97.2898 44.3797 96.4882 43.6615 96.4882 42.5621H96.4875ZM101.766 42.5052H102.76C102.845 43.1118 103.445 43.4972 104.309 43.4972C105.114 43.4972 105.705 43.0848 105.705 42.518C105.705 42.0309 105.33 41.7379 104.474 41.5388L103.641 41.3397C102.474 41.0695 101.94 40.5106 101.94 39.5712C101.94 38.432 102.88 37.6739 104.29 37.6739C105.602 37.6739 106.561 38.432 106.619 39.5086H105.642C105.549 38.9198 105.03 38.5515 104.277 38.5515C103.484 38.5515 102.957 38.9283 102.957 39.5043C102.957 39.9609 103.297 40.2226 104.139 40.4174L104.85 40.5902C106.175 40.896 106.722 41.4279 106.722 42.3893C106.722 43.6124 105.763 44.3797 104.232 44.3797C102.8 44.3797 101.837 43.648 101.766 42.5045V42.5052Z" fill="white"/>
</svg>
